<svg xmlns="http://www.w3.org/2000/svg" xmlns:xlink="http://www.w3.org/1999/xlink" width="250" zoomAndPan="magnify" viewBox="0 0 187.5 187.499992" height="250" preserveAspectRatio="xMidYMid meet" version="1.0"><defs><g/><clipPath id="e2978d7809"><path d="M 103 174 L 110 174 L 110 187 L 103 187 Z M 103 174 " clip-rule="nonzero"/></clipPath></defs><g fill="#fbb033" fill-opacity="1"><g transform="translate(83.669909, 177.604171)"><g><path d="M -7.359375 6.671875 L -7.125 5.171875 L -5.109375 5.484375 L -4.15625 -0.65625 L -2.28125 -0.359375 L -3.234375 5.78125 L -1.21875 6.09375 L -1.453125 7.59375 Z M -7.359375 6.671875 "/></g></g></g><g fill="#fbb033" fill-opacity="1"><g transform="translate(71.161294, 175.206892)"><g><path d="M -9.40625 5.078125 L -7.015625 -2.28125 L -5.234375 -1.703125 L -6.21875 1.328125 L -3.421875 2.234375 L -2.4375 -0.796875 L -0.65625 -0.21875 L -3.046875 7.140625 L -4.828125 6.5625 L -3.890625 3.671875 L -6.6875 2.765625 L -7.625 5.65625 Z M -9.40625 5.078125 "/></g></g></g><g fill="#fbb033" fill-opacity="1"><g transform="translate(57.772119, 170.244509)"><g><path d="M -5.109375 4.375 L -4.390625 2.96875 L -6.640625 1.828125 L -5.984375 0.546875 L -3.734375 1.6875 L -2.96875 0.171875 L -5.515625 -1.125 L -4.828125 -2.46875 L -0.609375 -0.3125 L -4.125 6.578125 L -8.34375 4.421875 L -7.65625 3.078125 Z M -5.109375 4.375 "/></g></g></g><g fill="#fbb033" fill-opacity="1"><g transform="translate(47.084313, 164.228144)"><g/></g></g><g fill="#fbb033" fill-opacity="1"><g transform="translate(40.080173, 159.177336)"><g><path d="M -6.640625 -0.59375 C -6.910156 -0.96875 -7.03125 -1.375 -7 -1.8125 C -6.976562 -2.257812 -6.820312 -2.648438 -6.53125 -2.984375 C -6.101562 -3.460938 -5.59375 -3.691406 -5 -3.671875 C -4.40625 -3.660156 -3.804688 -3.382812 -3.203125 -2.84375 L -0.515625 -0.453125 L -5.65625 5.328125 L -8.25 3.015625 C -8.84375 2.492188 -9.179688 1.945312 -9.265625 1.375 C -9.359375 0.8125 -9.203125 0.300781 -8.796875 -0.15625 C -8.492188 -0.5 -8.148438 -0.703125 -7.765625 -0.765625 C -7.390625 -0.828125 -7.015625 -0.769531 -6.640625 -0.59375 Z M -4.984375 1.734375 L -5.90625 0.921875 C -6.132812 0.710938 -6.351562 0.601562 -6.5625 0.59375 C -6.78125 0.582031 -6.976562 0.675781 -7.15625 0.875 C -7.332031 1.070312 -7.398438 1.273438 -7.359375 1.484375 C -7.328125 1.703125 -7.195312 1.914062 -6.96875 2.125 L -6.046875 2.9375 Z M -3.953125 -1.5 C -4.179688 -1.707031 -4.410156 -1.816406 -4.640625 -1.828125 C -4.878906 -1.835938 -5.085938 -1.738281 -5.265625 -1.53125 C -5.453125 -1.332031 -5.53125 -1.109375 -5.5 -0.859375 C -5.46875 -0.617188 -5.332031 -0.394531 -5.09375 -0.1875 L -4.078125 0.71875 L -2.921875 -0.578125 Z M -3.953125 -1.5 "/></g></g></g><g fill="#fbb033" fill-opacity="1"><g transform="translate(30.354746, 149.768366)"><g><path d="M -0.9375 -1.25 C -0.71875 -1 -0.613281 -0.726562 -0.625 -0.4375 C -0.644531 -0.144531 -0.765625 0.0859375 -0.984375 0.265625 C -1.203125 0.460938 -1.453125 0.539062 -1.734375 0.5 C -2.023438 0.46875 -2.28125 0.328125 -2.5 0.078125 C -2.707031 -0.171875 -2.800781 -0.4375 -2.78125 -0.71875 C -2.769531 -1 -2.65625 -1.238281 -2.4375 -1.4375 C -2.21875 -1.613281 -1.960938 -1.6875 -1.671875 -1.65625 C -1.390625 -1.632812 -1.144531 -1.5 -0.9375 -1.25 Z M -0.9375 -1.25 "/></g></g></g><g fill="#fbb033" fill-opacity="1"><g transform="translate(24.450225, 142.47599)"><g><path d="M -3.453125 1.78125 C -4.097656 2.1875 -4.765625 2.410156 -5.453125 2.453125 C -6.140625 2.492188 -6.78125 2.351562 -7.375 2.03125 C -7.976562 1.71875 -8.484375 1.242188 -8.890625 0.609375 C -9.378906 -0.160156 -9.59375 -0.953125 -9.53125 -1.765625 C -9.476562 -2.585938 -9.15625 -3.316406 -8.5625 -3.953125 L -7.4375 -2.203125 C -7.632812 -1.898438 -7.726562 -1.578125 -7.71875 -1.234375 C -7.71875 -0.898438 -7.617188 -0.585938 -7.421875 -0.296875 C -7.109375 0.203125 -6.679688 0.492188 -6.140625 0.578125 C -5.609375 0.660156 -5.054688 0.519531 -4.484375 0.15625 C -3.910156 -0.207031 -3.550781 -0.644531 -3.40625 -1.15625 C -3.257812 -1.675781 -3.34375 -2.1875 -3.65625 -2.6875 C -3.851562 -2.976562 -4.097656 -3.203125 -4.390625 -3.359375 C -4.679688 -3.515625 -5.003906 -3.566406 -5.359375 -3.515625 L -6.484375 -5.265625 C -5.660156 -5.523438 -4.867188 -5.507812 -4.109375 -5.21875 C -3.347656 -4.925781 -2.722656 -4.394531 -2.234375 -3.625 C -1.828125 -2.988281 -1.609375 -2.328125 -1.578125 -1.640625 C -1.546875 -0.960938 -1.691406 -0.328125 -2.015625 0.265625 C -2.335938 0.867188 -2.816406 1.375 -3.453125 1.78125 Z M -3.453125 1.78125 "/></g></g></g><g fill="#fbb033" fill-opacity="1"><g transform="translate(17.139892, 129.782263)"><g><path d="M -0.5625 -1.453125 C -0.425781 -1.148438 -0.40625 -0.863281 -0.5 -0.59375 C -0.59375 -0.332031 -0.769531 -0.144531 -1.03125 -0.03125 C -1.289062 0.09375 -1.550781 0.101562 -1.8125 0 C -2.082031 -0.113281 -2.285156 -0.320312 -2.421875 -0.625 C -2.554688 -0.914062 -2.570312 -1.195312 -2.46875 -1.46875 C -2.375 -1.738281 -2.195312 -1.9375 -1.9375 -2.0625 C -1.675781 -2.175781 -1.414062 -2.175781 -1.15625 -2.0625 C -0.894531 -1.945312 -0.695312 -1.742188 -0.5625 -1.453125 Z M -0.5625 -1.453125 "/></g></g></g><g fill="#fbb033" fill-opacity="1"><g transform="translate(13.586236, 121.019923)"><g/></g></g><g fill="#fbb033" fill-opacity="1"><g transform="translate(11.148976, 112.731078)"><g><path d="M -6.375 -5.5 C -5.9375 -5.582031 -5.515625 -5.550781 -5.109375 -5.40625 C -4.703125 -5.269531 -4.347656 -5.015625 -4.046875 -4.640625 C -3.753906 -4.273438 -3.546875 -3.78125 -3.421875 -3.15625 L -3.203125 -2 L -0.46875 -2.515625 L -0.125 -0.671875 L -7.71875 0.765625 L -8.28125 -2.234375 C -8.394531 -2.835938 -8.390625 -3.367188 -8.265625 -3.828125 C -8.140625 -4.285156 -7.910156 -4.65625 -7.578125 -4.9375 C -7.242188 -5.21875 -6.84375 -5.40625 -6.375 -5.5 Z M -4.875 -2.734375 C -4.9375 -3.078125 -5.066406 -3.320312 -5.265625 -3.46875 C -5.460938 -3.613281 -5.710938 -3.660156 -6.015625 -3.609375 C -6.316406 -3.546875 -6.535156 -3.410156 -6.671875 -3.203125 C -6.804688 -2.992188 -6.84375 -2.71875 -6.78125 -2.375 L -6.578125 -1.359375 L -4.671875 -1.71875 Z M -4.875 -2.734375 "/></g></g></g><g fill="#fbb033" fill-opacity="1"><g transform="translate(9.187586, 99.777911)"><g><path d="M -0.140625 -4.625 L -3.015625 -2.921875 L -3 -2.46875 L -0.078125 -2.5625 L -0.015625 -0.6875 L -7.75 -0.453125 L -7.84375 -3.609375 C -7.863281 -4.222656 -7.773438 -4.742188 -7.578125 -5.171875 C -7.378906 -5.609375 -7.097656 -5.941406 -6.734375 -6.171875 C -6.367188 -6.398438 -5.957031 -6.519531 -5.5 -6.53125 C -4.988281 -6.539062 -4.523438 -6.40625 -4.109375 -6.125 C -3.691406 -5.851562 -3.394531 -5.4375 -3.21875 -4.875 L -0.203125 -6.75 Z M -4.328125 -2.4375 L -4.359375 -3.609375 C -4.367188 -3.953125 -4.460938 -4.207031 -4.640625 -4.375 C -4.816406 -4.539062 -5.054688 -4.617188 -5.359375 -4.609375 C -5.648438 -4.597656 -5.878906 -4.503906 -6.046875 -4.328125 C -6.210938 -4.148438 -6.289062 -3.890625 -6.28125 -3.546875 L -6.25 -2.375 Z M -4.328125 -2.4375 "/></g></g></g><g fill="#fbb033" fill-opacity="1"><g transform="translate(9.242998, 86.383773)"><g><path d="M 0.671875 -4.28125 C 0.566406 -3.5625 0.3125 -2.925781 -0.09375 -2.375 C -0.507812 -1.820312 -1.039062 -1.410156 -1.6875 -1.140625 C -2.34375 -0.867188 -3.050781 -0.785156 -3.8125 -0.890625 C -4.550781 -0.992188 -5.191406 -1.265625 -5.734375 -1.703125 C -6.285156 -2.140625 -6.6875 -2.679688 -6.9375 -3.328125 C -7.195312 -3.972656 -7.273438 -4.65625 -7.171875 -5.375 C -7.066406 -6.101562 -6.804688 -6.742188 -6.390625 -7.296875 C -5.972656 -7.847656 -5.441406 -8.253906 -4.796875 -8.515625 C -4.148438 -8.773438 -3.457031 -8.851562 -2.71875 -8.75 C -1.957031 -8.644531 -1.300781 -8.375 -0.75 -7.9375 C -0.207031 -7.507812 0.1875 -6.972656 0.4375 -6.328125 C 0.695312 -5.691406 0.773438 -5.007812 0.671875 -4.28125 Z M -1.03125 -4.515625 C -0.945312 -5.128906 -1.082031 -5.644531 -1.4375 -6.0625 C -1.789062 -6.488281 -2.304688 -6.75 -2.984375 -6.84375 C -3.648438 -6.9375 -4.210938 -6.828125 -4.671875 -6.515625 C -5.128906 -6.210938 -5.398438 -5.753906 -5.484375 -5.140625 C -5.566406 -4.523438 -5.429688 -4.003906 -5.078125 -3.578125 C -4.734375 -3.160156 -4.222656 -2.90625 -3.546875 -2.8125 C -2.859375 -2.71875 -2.285156 -2.820312 -1.828125 -3.125 C -1.378906 -3.4375 -1.113281 -3.898438 -1.03125 -4.515625 Z M -1.03125 -4.515625 "/></g></g></g><g fill="#fbb033" fill-opacity="1"><g transform="translate(11.828569, 71.757083)"><g><path d="M -4.9375 -9.921875 L 1.578125 -4.953125 L 0.859375 -2.703125 L -7.328125 -2.453125 L -6.71875 -4.375 L -0.578125 -4.40625 L -5.546875 -8.03125 Z M -4.9375 -9.921875 "/></g></g></g><g fill="#fbb033" fill-opacity="1"><g transform="translate(16.761873, 58.332968)"><g><path d="M -5.859375 -5.6875 L 1.109375 -2.3125 L 0.296875 -0.625 L -6.671875 -4 Z M -5.859375 -5.6875 "/></g></g></g><g fill="#fbb033" fill-opacity="1"><g transform="translate(21.150766, 49.882459)"><g><path d="M 4.25 -6.296875 L 3.203125 -4.734375 L -2.515625 -4.78125 L 1.4375 -2.125 L 0.390625 -0.5625 L -6.015625 -4.890625 L -4.96875 -6.453125 L 0.765625 -6.375 L -3.203125 -9.0625 L -2.15625 -10.625 Z M 4.25 -6.296875 "/></g></g></g><g fill="#fbb033" fill-opacity="1"><g transform="translate(29.676667, 38.177406)"><g><path d="M -2.546875 -2.953125 C -3.097656 -3.472656 -3.472656 -4.0625 -3.671875 -4.71875 C -3.867188 -5.375 -3.882812 -6.03125 -3.71875 -6.6875 C -3.550781 -7.34375 -3.210938 -7.941406 -2.703125 -8.484375 C -2.066406 -9.148438 -1.34375 -9.550781 -0.53125 -9.6875 C 0.269531 -9.820312 1.046875 -9.679688 1.796875 -9.265625 L 0.359375 -7.765625 C 0.0234375 -7.878906 -0.300781 -7.890625 -0.625 -7.796875 C -0.945312 -7.710938 -1.226562 -7.539062 -1.46875 -7.28125 C -1.875 -6.863281 -2.054688 -6.382812 -2.015625 -5.84375 C -1.972656 -5.300781 -1.707031 -4.796875 -1.21875 -4.328125 C -0.726562 -3.859375 -0.210938 -3.613281 0.328125 -3.59375 C 0.867188 -3.570312 1.34375 -3.769531 1.75 -4.1875 C 1.988281 -4.445312 2.144531 -4.738281 2.21875 -5.0625 C 2.289062 -5.394531 2.265625 -5.722656 2.140625 -6.046875 L 3.578125 -7.546875 C 4.035156 -6.816406 4.207031 -6.046875 4.09375 -5.234375 C 3.988281 -4.421875 3.617188 -3.679688 2.984375 -3.015625 C 2.472656 -2.472656 1.890625 -2.109375 1.234375 -1.921875 C 0.578125 -1.734375 -0.078125 -1.722656 -0.734375 -1.890625 C -1.390625 -2.066406 -1.992188 -2.421875 -2.546875 -2.953125 Z M -2.546875 -2.953125 "/></g></g></g><g fill="#fbb033" fill-opacity="1"><g transform="translate(40.269269, 28.060101)"><g><path d="M -2.734375 -7.671875 L 2.015625 -1.578125 L 0.546875 -0.421875 L -4.203125 -6.515625 Z M -2.734375 -7.671875 "/></g></g></g><g fill="#fbb033" fill-opacity="1"><g transform="translate(47.944926, 22.420177)"><g><path d="M 4.09375 -3.90625 L 1.59375 -2.46875 L 1.859375 -1.0625 L 0.15625 -0.078125 L -1.265625 -8.1875 L 0.625 -9.265625 L 6.890625 -3.953125 L 5.15625 -2.96875 Z M 2.9375 -4.9375 L 0.703125 -6.921875 L 1.296875 -3.984375 Z M 2.9375 -4.9375 "/></g></g></g><g fill="#fbb033" fill-opacity="1"><g transform="translate(60.675061, 15.791993)"><g><path d="M 1.875 -2.28125 L 4.171875 -3.171875 L 4.6875 -1.8125 L 0.640625 -0.25 L -2.140625 -7.46875 L -0.390625 -8.140625 Z M 1.875 -2.28125 "/></g></g></g><g fill="#fbb033" fill-opacity="1"><g transform="translate(71.629627, 12.068503)"><g/></g></g><g fill="#fbb033" fill-opacity="1"><g transform="translate(80.041711, 10.172908)"><g><path d="M 7.546875 -0.84375 L 5.6875 -0.625 L 2.015625 -5.015625 L 2.546875 -0.28125 L 0.6875 -0.078125 L -0.171875 -7.765625 L 1.6875 -7.96875 L 5.359375 -3.546875 L 4.828125 -8.3125 L 6.6875 -8.53125 Z M 7.546875 -0.84375 "/></g></g></g><g fill="#fbb033" fill-opacity="1"><g transform="translate(94.478574, 9.091359)"><g><path d="M 4.328125 0.34375 C 3.609375 0.300781 2.957031 0.09375 2.375 -0.28125 C 1.789062 -0.65625 1.335938 -1.15625 1.015625 -1.78125 C 0.691406 -2.414062 0.554688 -3.113281 0.609375 -3.875 C 0.648438 -4.613281 0.867188 -5.269531 1.265625 -5.84375 C 1.660156 -6.425781 2.171875 -6.867188 2.796875 -7.171875 C 3.421875 -7.472656 4.09375 -7.601562 4.8125 -7.5625 C 5.539062 -7.507812 6.195312 -7.296875 6.78125 -6.921875 C 7.363281 -6.546875 7.8125 -6.046875 8.125 -5.421875 C 8.4375 -4.796875 8.570312 -4.113281 8.53125 -3.375 C 8.476562 -2.613281 8.253906 -1.941406 7.859375 -1.359375 C 7.472656 -0.773438 6.96875 -0.332031 6.34375 -0.03125 C 5.726562 0.269531 5.054688 0.394531 4.328125 0.34375 Z M 4.4375 -1.375 C 5.050781 -1.332031 5.554688 -1.503906 5.953125 -1.890625 C 6.347656 -2.273438 6.566406 -2.804688 6.609375 -3.484375 C 6.648438 -4.148438 6.5 -4.703125 6.15625 -5.140625 C 5.8125 -5.578125 5.332031 -5.816406 4.71875 -5.859375 C 4.101562 -5.890625 3.597656 -5.710938 3.203125 -5.328125 C 2.804688 -4.953125 2.585938 -4.425781 2.546875 -3.75 C 2.492188 -3.0625 2.640625 -2.5 2.984375 -2.0625 C 3.335938 -1.632812 3.820312 -1.40625 4.4375 -1.375 Z M 4.4375 -1.375 "/></g></g></g><g fill="#fbb033" fill-opacity="1"><g transform="translate(109.241281, 10.5231)"><g><path d="M 11.046875 -5.1875 L 9.15625 2.3125 L 7.328125 1.84375 L 8.46875 -2.65625 L 5.65625 1.421875 L 4.1875 1.046875 L 3.625 -3.890625 L 2.484375 0.625 L 0.671875 0.171875 L 2.5625 -7.328125 L 4.703125 -6.796875 L 5.5 -1.0625 L 8.890625 -5.734375 Z M 11.046875 -5.1875 "/></g></g></g><g fill="#fbb033" fill-opacity="1"><g transform="translate(124.886929, 15.229641)"><g><path d="M 5.375 -6.125 L 2.359375 1 L 0.640625 0.265625 L 3.65625 -6.859375 Z M 5.375 -6.125 "/></g></g></g><g fill="#fbb033" fill-opacity="1"><g transform="translate(133.551737, 19.181834)"><g><path d="M 6.5 3.921875 L 4.890625 2.953125 L 4.640625 -2.75 L 2.1875 1.328125 L 0.59375 0.359375 L 4.59375 -6.265625 L 6.1875 -5.296875 L 6.40625 0.4375 L 8.890625 -3.671875 L 10.5 -2.703125 Z M 6.5 3.921875 "/></g></g></g><g fill="#fbb033" fill-opacity="1"><g transform="translate(145.664194, 27.165356)"><g><path d="M 5.96875 -3.09375 L 4.953125 -1.90625 L 6.890625 -0.28125 L 5.953125 0.828125 L 4.015625 -0.796875 L 2.9375 0.5 L 5.125 2.34375 L 4.140625 3.5 L 0.53125 0.4375 L 5.515625 -5.46875 L 9.125 -2.40625 L 8.15625 -1.25 Z M 5.96875 -3.09375 "/></g></g></g><g fill="#fbb033" fill-opacity="1"><g transform="translate(154.707106, 35.382781)"><g><path d="M 6.359375 -2.203125 L 5.1875 -1.171875 L 6.859375 0.71875 L 5.765625 1.6875 L 4.09375 -0.203125 L 2.84375 0.921875 L 4.734375 3.0625 L 3.59375 4.0625 L 0.453125 0.515625 L 6.234375 -4.609375 L 9.375 -1.0625 L 8.25 -0.0625 Z M 6.359375 -2.203125 "/></g></g></g><g fill="#fbb033" fill-opacity="1"><g transform="translate(162.461939, 44.883879)"><g/></g></g><g fill="#fbb033" fill-opacity="1"><g transform="translate(167.134769, 52.150343)"><g><path d="M 7.671875 3.46875 C 7.273438 3.675781 6.859375 3.769531 6.421875 3.75 C 5.992188 3.726562 5.582031 3.582031 5.1875 3.3125 C 4.800781 3.039062 4.460938 2.625 4.171875 2.0625 L 3.640625 1.015625 L 1.171875 2.28125 L 0.3125 0.609375 L 7.203125 -2.90625 L 8.59375 -0.1875 C 8.875 0.351562 9.015625 0.859375 9.015625 1.328125 C 9.015625 1.804688 8.894531 2.226562 8.65625 2.59375 C 8.425781 2.957031 8.097656 3.25 7.671875 3.46875 Z M 5.453125 1.25 C 5.609375 1.5625 5.800781 1.757812 6.03125 1.84375 C 6.257812 1.925781 6.515625 1.894531 6.796875 1.75 C 7.066406 1.613281 7.234375 1.425781 7.296875 1.1875 C 7.367188 0.957031 7.328125 0.6875 7.171875 0.375 L 6.703125 -0.546875 L 4.984375 0.328125 Z M 5.453125 1.25 "/></g></g></g><g fill="#fbb033" fill-opacity="1"><g transform="translate(172.673575, 64.025002)"><g><path d="M 1.4375 4.390625 L 3.71875 1.953125 L 3.578125 1.53125 L 0.796875 2.4375 L 0.21875 0.65625 L 7.578125 -1.75 L 8.546875 1.25 C 8.742188 1.832031 8.804688 2.359375 8.734375 2.828125 C 8.660156 3.304688 8.476562 3.703125 8.1875 4.015625 C 7.90625 4.335938 7.546875 4.570312 7.109375 4.71875 C 6.628906 4.875 6.148438 4.875 5.671875 4.71875 C 5.191406 4.570312 4.785156 4.253906 4.453125 3.765625 L 2.09375 6.421875 Z M 4.84375 1.125 L 5.203125 2.234375 C 5.304688 2.566406 5.46875 2.785156 5.6875 2.890625 C 5.90625 2.992188 6.160156 3 6.453125 2.90625 C 6.722656 2.820312 6.910156 2.671875 7.015625 2.453125 C 7.117188 2.234375 7.117188 1.957031 7.015625 1.625 L 6.65625 0.515625 Z M 4.84375 1.125 "/></g></g></g><g fill="#fbb033" fill-opacity="1"><g transform="translate(176.391785, 76.892439)"><g><path d="M 0.5625 4.3125 C 0.457031 3.59375 0.523438 2.90625 0.765625 2.25 C 1.015625 1.601562 1.410156 1.054688 1.953125 0.609375 C 2.492188 0.171875 3.140625 -0.101562 3.890625 -0.21875 C 4.628906 -0.320312 5.328125 -0.242188 5.984375 0.015625 C 6.640625 0.273438 7.175781 0.679688 7.59375 1.234375 C 8.019531 1.785156 8.285156 2.421875 8.390625 3.140625 C 8.492188 3.859375 8.425781 4.539062 8.1875 5.1875 C 7.945312 5.832031 7.550781 6.375 7 6.8125 C 6.445312 7.25 5.800781 7.519531 5.0625 7.625 C 4.3125 7.738281 3.609375 7.664062 2.953125 7.40625 C 2.304688 7.144531 1.769531 6.742188 1.34375 6.203125 C 0.925781 5.660156 0.664062 5.03125 0.5625 4.3125 Z M 2.265625 4.046875 C 2.359375 4.648438 2.632812 5.109375 3.09375 5.421875 C 3.550781 5.734375 4.113281 5.835938 4.78125 5.734375 C 5.457031 5.640625 5.972656 5.375 6.328125 4.9375 C 6.679688 4.507812 6.8125 3.992188 6.71875 3.390625 C 6.625 2.773438 6.347656 2.3125 5.890625 2 C 5.441406 1.6875 4.875 1.582031 4.1875 1.6875 C 3.507812 1.789062 2.992188 2.054688 2.640625 2.484375 C 2.296875 2.910156 2.171875 3.429688 2.265625 4.046875 Z M 2.265625 4.046875 "/></g></g></g><g fill="#fbb033" fill-opacity="1"><g transform="translate(178.037011, 91.65168)"><g><path d="M 5.125 5.953125 C 5.394531 5.816406 5.597656 5.617188 5.734375 5.359375 C 5.878906 5.109375 5.957031 4.804688 5.96875 4.453125 C 5.976562 3.835938 5.785156 3.34375 5.390625 2.96875 C 5.003906 2.59375 4.476562 2.394531 3.8125 2.375 C 3.101562 2.363281 2.539062 2.546875 2.125 2.921875 C 1.71875 3.296875 1.507812 3.820312 1.5 4.5 C 1.476562 4.957031 1.582031 5.347656 1.8125 5.671875 C 2.039062 6.003906 2.375 6.25 2.8125 6.40625 L 2.859375 4.015625 L 4.25 4.046875 L 4.15625 8.140625 L 2.40625 8.09375 C 1.9375 7.945312 1.503906 7.695312 1.109375 7.34375 C 0.710938 7 0.394531 6.566406 0.15625 6.046875 C -0.0820312 5.535156 -0.191406 4.957031 -0.171875 4.3125 C -0.148438 3.539062 0.0351562 2.859375 0.390625 2.265625 C 0.742188 1.679688 1.21875 1.226562 1.8125 0.90625 C 2.414062 0.59375 3.097656 0.441406 3.859375 0.453125 C 4.617188 0.472656 5.296875 0.65625 5.890625 1 C 6.484375 1.351562 6.941406 1.832031 7.265625 2.4375 C 7.585938 3.050781 7.738281 3.738281 7.71875 4.5 C 7.695312 5.425781 7.453125 6.203125 6.984375 6.828125 C 6.515625 7.453125 5.878906 7.851562 5.078125 8.03125 Z M 5.125 5.953125 "/></g></g></g><g fill="#fbb033" fill-opacity="1"><g transform="translate(177.097917, 106.218869)"><g><path d="M -0.875 4.546875 L 2.296875 3.515625 L 2.390625 3.078125 L -0.484375 2.515625 L -0.125 0.671875 L 7.46875 2.140625 L 6.859375 5.234375 C 6.742188 5.835938 6.539062 6.328125 6.25 6.703125 C 5.957031 7.085938 5.609375 7.347656 5.203125 7.484375 C 4.796875 7.628906 4.367188 7.660156 3.921875 7.578125 C 3.421875 7.472656 3 7.238281 2.65625 6.875 C 2.3125 6.507812 2.109375 6.035156 2.046875 5.453125 L -1.28125 6.625 Z M 3.6875 3.328125 L 3.453125 4.484375 C 3.390625 4.816406 3.425781 5.082031 3.5625 5.28125 C 3.695312 5.476562 3.914062 5.609375 4.21875 5.671875 C 4.5 5.722656 4.738281 5.679688 4.9375 5.546875 C 5.144531 5.410156 5.28125 5.175781 5.34375 4.84375 L 5.578125 3.6875 Z M 3.6875 3.328125 "/></g></g></g><g fill="#fbb033" fill-opacity="1"><g transform="translate(174.083116, 119.274331)"><g><path d="M -0.640625 5.625 L 0.375 2.921875 L -0.75 2 L -0.0625 0.15625 L 6.21875 5.46875 L 5.453125 7.515625 L -2.765625 7.453125 L -2.078125 5.578125 Z M 0.890625 5.6875 L 3.890625 5.765625 L 1.5625 3.90625 Z M 0.890625 5.6875 "/></g></g></g><g fill="#fbb033" fill-opacity="1"><g transform="translate(168.658864, 132.510633)"><g><path d="M 1.8125 12.0625 L -4.828125 8.109375 L -3.875 6.5 L 0.109375 8.875 L -2.984375 5.015625 L -2.203125 3.703125 L 2.6875 4.578125 L -1.3125 2.203125 L -0.359375 0.59375 L 6.28125 4.546875 L 5.15625 6.453125 L -0.546875 5.578125 L 2.953125 10.15625 Z M 1.8125 12.0625 "/></g></g></g><g fill="#fbb033" fill-opacity="1"><g transform="translate(159.662685, 146.162412)"><g/></g></g><g fill="#fbb033" fill-opacity="1"><g transform="translate(153.968305, 152.68006)"><g><path d="M -3.90625 0.578125 C -2.925781 0.566406 -1.914062 0.8125 -0.875 1.3125 C 0.15625 1.8125 1.101562 2.515625 1.96875 3.421875 C 2.851562 4.328125 3.523438 5.316406 3.984375 6.390625 C 4.441406 7.472656 4.644531 8.53125 4.59375 9.5625 L 3.265625 10.84375 L 3.125 10.703125 C 3.15625 9.617188 2.945312 8.546875 2.5 7.484375 C 2.0625 6.429688 1.445312 5.5 0.65625 4.6875 C -0.125 3.875 -1.019531 3.234375 -2.03125 2.765625 C -3.050781 2.296875 -4.082031 2.035156 -5.125 1.984375 L -5.25 1.859375 Z M -3.90625 0.578125 "/></g></g></g><g fill="#fbb033" fill-opacity="1"><g transform="translate(145.397243, 160.375756)"><g><path d="M -2.3125 8.09375 C -2.570312 7.726562 -2.722656 7.332031 -2.765625 6.90625 C -2.816406 6.488281 -2.734375 6.0625 -2.515625 5.625 C -2.304688 5.195312 -1.941406 4.800781 -1.421875 4.4375 L -0.46875 3.75 L -2.078125 1.484375 L -0.5625 0.40625 L 3.9375 6.703125 L 1.46875 8.46875 C 0.96875 8.820312 0.476562 9.035156 0 9.109375 C -0.46875 9.179688 -0.898438 9.128906 -1.296875 8.953125 C -1.691406 8.773438 -2.03125 8.488281 -2.3125 8.09375 Z M -0.4375 5.578125 C -0.726562 5.773438 -0.894531 5.992188 -0.9375 6.234375 C -0.976562 6.472656 -0.910156 6.71875 -0.734375 6.96875 C -0.554688 7.21875 -0.347656 7.359375 -0.109375 7.390625 C 0.128906 7.429688 0.394531 7.351562 0.6875 7.15625 L 1.53125 6.546875 L 0.40625 4.96875 Z M -0.4375 5.578125 "/></g></g></g><g fill="#fbb033" fill-opacity="1"><g transform="translate(134.493277, 167.615549)"><g><path d="M -6.8125 3.34375 L -5.125 2.53125 L -0.1875 5.40625 L -2.296875 1.125 L -0.609375 0.296875 L 2.796875 7.234375 L 1.109375 8.0625 L -3.828125 5.171875 L -1.71875 9.46875 L -3.40625 10.28125 Z M -6.8125 3.34375 "/></g></g></g><g fill="#fbb033" fill-opacity="1"><g transform="translate(121.240868, 173.50215)"><g><path d="M -4.78125 6.9375 C -4.90625 6.5 -4.921875 6.070312 -4.828125 5.65625 C -4.742188 5.238281 -4.53125 4.859375 -4.1875 4.515625 C -3.84375 4.179688 -3.367188 3.921875 -2.765625 3.734375 L -1.640625 3.390625 L -2.453125 0.734375 L -0.65625 0.203125 L 1.578125 7.609375 L -1.34375 8.484375 C -1.925781 8.660156 -2.453125 8.707031 -2.921875 8.625 C -3.398438 8.550781 -3.789062 8.363281 -4.09375 8.0625 C -4.40625 7.769531 -4.632812 7.394531 -4.78125 6.9375 Z M -2.203125 5.140625 C -2.546875 5.234375 -2.773438 5.382812 -2.890625 5.59375 C -3.003906 5.8125 -3.019531 6.070312 -2.9375 6.375 C -2.84375 6.65625 -2.6875 6.851562 -2.46875 6.96875 C -2.257812 7.082031 -1.984375 7.09375 -1.640625 7 L -0.65625 6.6875 L -1.21875 4.828125 Z M -2.203125 5.140625 "/></g></g></g><g clip-path="url(#e2978d7809)"><g fill="#fbb033" fill-opacity="1"><g transform="translate(108.541878, 176.806218)"><g><path d="M -0.515625 -2.234375 L -0.484375 -2.078125 C -1.097656 -1.210938 -1.523438 -0.238281 -1.765625 0.84375 C -2.015625 1.9375 -2.054688 3.035156 -1.890625 4.140625 C -1.722656 5.265625 -1.351562 6.328125 -0.78125 7.328125 C -0.21875 8.328125 0.5 9.144531 1.375 9.78125 L 1.40625 9.96875 L -0.421875 10.234375 C -1.273438 9.660156 -1.984375 8.863281 -2.546875 7.84375 C -3.117188 6.820312 -3.5 5.679688 -3.6875 4.421875 C -3.875 3.191406 -3.847656 2.007812 -3.609375 0.875 C -3.378906 -0.25 -2.960938 -1.195312 -2.359375 -1.96875 Z M -0.515625 -2.234375 "/></g></g></g></g></svg>