<svg id="Layer_1" viewBox="0 0 512 512" xmlns="http://www.w3.org/2000/svg" data-name="Layer 1"><path d="m363.735 448.236a11.183 11.183 0 0 1 -15.792 0l-223.558-223.547a11.172 11.172 0 0 1 0-15.788l112.606-112.616 61.295 164a23.338 23.338 0 0 0 14.068 14.053l163.982 61.3-112.6 112.606zm145.122-145.127a11.177 11.177 0 0 0 0-15.787l-223.547-223.558a11.184 11.184 0 0 0 -15.793 0l-22.582 22.573 63.336 169.463a10.633 10.633 0 0 0 6.559 6.549l169.455 63.331 22.572-22.572zm-508.978-131.015a6 6 0 0 0 6 6h115.088a6 6 0 0 0 0-12h-115.088a6 6 0 0 0 -6 6zm133.353 100.522a6 6 0 0 0 -6-6h-119.06a6 6 0 0 0 0 12h119.06a6.006 6.006 0 0 0 6-6zm56.368 56.369a6 6 0 0 0 -6-6h-77.426a6 6 0 0 0 0 12h77.426a6.008 6.008 0 0 0 6-6zm-81.007 55.12a6 6 0 0 0 0 12h136.132a6 6 0 0 0 0-12z" fill-rule="evenodd"/></svg>