<svg xmlns="http://www.w3.org/2000/svg" version="1.1" xmlns:xlink="http://www.w3.org/1999/xlink" width="512" height="512" x="0" y="0" viewBox="0 0 74 74" style="enable-background:new 0 0 512 512" xml:space="preserve" class=""><g transform="matrix(1,0,0,1,0,0)"><path d="M68.4 35.6 54.6 21.7c-.8-.8-2-.8-2.8 0-.8.8-.8 2 0 2.8L62.2 35H7c-1.1 0-2 .9-2 2s.9 2 2 2h55.2L51.7 49.4c-.8.8-.8 2 0 2.8s2 .8 2.8 0l13.8-13.9c.9-.7.9-1.9.1-2.7z" fill="#3daee0" opacity="1" data-original="#000000" class=""></path></g></svg>