<svg id="Layer_1" enable-background="new 0 0 66 66" height="512" viewBox="0 0 66 66" width="512" xmlns="http://www.w3.org/2000/svg"><g><path d="m48.3 1c-6.6 0-12.4 3.4-15.1 8.4h-25.5c-2.1 0-3.7 1.7-3.7 3.7v43.1h-2c-.6 0-1 .5-1 1 .3 4.4 3.9 7.8 8.2 7.8h45.6c4.3 0 8-3.4 8.2-7.7 0-.6-.4-1-1-1h-2v-30.1c3-2.7 4.9-6.4 4.9-10.4.1-8.2-7.4-14.8-16.6-14.8zm6.5 62.1h-45.6c-3 0-5.5-2.1-6.2-4.9h58c-.7 2.8-3.2 4.9-6.2 4.9zm3.3-6.8h-52.2v-43.2c0-1 .8-1.8 1.8-1.8h24.6c-1.7 4.7-.6 9.9 3 13.7l-1.3 6c-.2.7.5 1.3 1.2 1.1l8.3-2.2c4.9 1.3 10.3.6 14.6-2.3zm-14.3-28.3c-.2 0-.3 0-.5 0l-7 1.9 1.1-4.8c.1-.3 0-.7-.3-.9-8.1-8.1-1.6-21.1 11.2-21.1 8.1 0 14.8 5.8 14.8 12.8 0 8.5-9.8 14.7-19.3 12.1z"/><path d="m52.5 6c-.3-.8-1.5-.8-1.8 0-2.3 5.5-9.2 7.2-9.1 7.2-2.3.9-3.3 3.5-2.4 5.8.7 1.7 2.3 2.7 4.1 2.7.3 0 .6 0 .9-.1l2.4 3.9c.3.5.9.6 1.3.3.5-.3.6-.9.3-1.3l-2.2-3.5 2.3-.9c2.6-1.1 5.6-1.1 8.2 0 .8.3 1.6-.5 1.3-1.3zm-11.6 12.3c-.5-1.3.1-2.8 1.4-3.3l1.4-.6 1.9 4.6-1.4.6c-1.2.5-2.7-.1-3.3-1.3zm6.6-.1-.2.1-1.9-4.6c.1-.1 3.6-1.3 6-5l3.7 8.9c-2.5-.6-5.1-.4-7.6.6z"/><path d="m34 33.4h-22.6c-1.4 0-2.6 1.1-2.6 2.6v14.9c0 1.3 1.1 2.6 2.6 2.6h22.6c1.4 0 2.6-1.2 2.6-2.6v-15c0-1.4-1.2-2.5-2.6-2.5zm-23.2 3.3 6.5 6.5-6.5 6.5zm11.9 9.2c-2.5-2.5-4.4-4.4-10.6-10.5h21.1c-3.4 3.3-5.8 5.7-10.5 10.5zm-4.1-1.4 3.4 3.4c.4.4 1 .4 1.4 0l3.4-3.4 6.9 6.9h-22zm9.5-1.3 6.5-6.5v13z"/><path d="m53.3 47.5h-12c-.5 0-1 .4-1 1 0 .5.4 1 1 1h12c.5 0 1-.4 1-1s-.5-1-1-1z"/><path d="m40.3 42.4c0 .5.4 1 1 1h12c.5 0 1-.4 1-1s-.4-1-1-1h-12c-.6 0-1 .5-1 1z"/><path d="m10.7 27.6h17.5c.5 0 1-.4 1-1 0-.5-.4-1-1-1h-17.5c-.5 0-1 .4-1 1 0 .5.5 1 1 1z"/><path d="m10.7 21.1h17.5c.5 0 1-.4 1-1 0-.5-.4-1-1-1h-17.5c-.5 0-1 .4-1 1s.5 1 1 1z"/></g></svg>