<svg id="Layer_1" enable-background="new 0 0 450 450" height="512" viewBox="0 0 450 450" width="512" xmlns="http://www.w3.org/2000/svg"><g><g><path d="m397.84 428.28h-345.16c-26.17 0-47.46-21.29-47.46-47.46v-310.16c0-26.17 21.29-47.46 47.46-47.46h345.15c26.17 0 47.46 21.29 47.46 47.46v310.16c.01 26.17-21.28 47.46-47.45 47.46zm-345.16-395.08c-20.66 0-37.46 16.81-37.46 37.46v310.16c0 20.66 16.81 37.46 37.46 37.46h345.15c20.66 0 37.46-16.81 37.46-37.46v-310.16c0-20.66-16.81-37.46-37.46-37.46z"/></g><g><path d="m440.3 103.6h-430.08c-2.76 0-5-2.24-5-5s2.24-5 5-5h430.08c2.76 0 5 2.24 5 5s-2.24 5-5 5z"/></g><g><path d="m83.43 68.4h-23.37c-2.76 0-5-2.24-5-5s2.24-5 5-5h23.37c2.76 0 5 2.24 5 5s-2.24 5-5 5z"/></g><g><path d="m147.44 68.4h-23.37c-2.76 0-5-2.24-5-5s2.24-5 5-5h23.37c2.76 0 5 2.24 5 5s-2.24 5-5 5z"/></g><g><path d="m211.45 68.4h-23.37c-2.76 0-5-2.24-5-5s2.24-5 5-5h23.37c2.76 0 5 2.24 5 5s-2.24 5-5 5z"/></g><g><path d="m318.53 337.47h-261.27c-2.76 0-5-2.24-5-5v-184.07c0-2.76 2.24-5 5-5h295.06c2.76 0 5 2.24 5 5v150.37c0 2.76-2.24 5-5 5s-5-2.24-5-5v-145.37h-285.06v174.07h256.27c2.76 0 5 2.24 5 5s-2.23 5-5 5z"/></g><g><path d="m311.51 311.24h-228.02c-2.76 0-5-2.24-5-5v-131.61c0-2.76 2.24-5 5-5h242.6c2.76 0 5 2.24 5 5v117.12c0 2.76-2.24 5-5 5s-5-2.24-5-5v-112.12h-232.6v121.62h223.01c2.76 0 5 2.24 5 5s-2.23 4.99-4.99 4.99z"/></g><g><path d="m160.23 257.96h-76.74c-2.76 0-5-2.24-5-5s2.24-5 5-5h71.73v-15.04h-71.73c-2.76 0-5-2.24-5-5s2.24-5 5-5h76.73c2.76 0 5 2.24 5 5v25.04c.01 2.76-2.23 5-4.99 5z"/></g><g><path d="m326.1 257.96h-76.73c-2.76 0-5-2.24-5-5v-25.04c0-2.76 2.24-5 5-5h76.73c2.76 0 5 2.24 5 5s-2.24 5-5 5h-71.73v15.04h71.73c2.76 0 5 2.24 5 5s-2.24 5-5 5z"/></g><g><path d="m204.14 286.25c-2.76 0-5-2.24-5-5v-10.71c0-2.76 2.24-5 5-5s5 2.24 5 5v10.71c0 2.76-2.24 5-5 5z"/></g><g><path d="m203.27 275.56c-.37 0-.73-.01-1.1-.03-8.29-.42-17.92-6.01-17.78-20.41.03-2.74 2.26-4.95 5-4.95h.05c2.76.03 4.98 2.29 4.95 5.05-.08 8.19 4.46 10.14 8.28 10.33 5.77.29 11.6-3.33 11.97-7.45.01-.07.01-.13.02-.2 1.02-7.77-9.33-12.17-12.53-13.33-13.86-5.04-19.57-12.67-16.97-22.67 3.4-13.06 14.4-17.63 23.16-16.35 10.3 1.51 17.23 9.98 16.85 20.61-.1 2.76-2.43 4.9-5.18 4.82-2.76-.1-4.92-2.42-4.82-5.18.24-6.71-4.32-9.77-8.31-10.35-4.31-.63-10.05 1.34-12.04 8.97-.85 3.25-.14 6.8 10.71 10.74 4.96 1.8 20.94 8.84 19.04 23.93-.96 10.08-11.56 16.47-21.3 16.47z"/></g><g><path d="m204.14 215.35c-2.76 0-5-2.24-5-5v-10.71c0-2.76 2.24-5 5-5s5 2.24 5 5v10.71c0 2.76-2.24 5-5 5z"/></g><g><path d="m377.52 378.48c-1.28 0-2.56-.49-3.54-1.46l-31.64-31.64-14.01 14.01c-1.26 1.26-3.1 1.76-4.83 1.3s-3.07-1.81-3.54-3.54l-18.6-69.43c-.46-1.73.03-3.57 1.3-4.83 1.26-1.26 3.1-1.76 4.83-1.3l69.43 18.6c1.73.46 3.07 1.81 3.54 3.54.46 1.73-.03 3.57-1.3 4.83l-14.01 14.01 31.64 31.64c.94.94 1.46 2.21 1.46 3.54s-.53 2.6-1.46 3.54l-15.73 15.73c-.98.97-2.26 1.46-3.54 1.46zm-35.18-45.18c1.28 0 2.56.49 3.54 1.46l31.64 31.64 8.66-8.66-31.64-31.64c-1.95-1.95-1.95-5.12 0-7.07l11.42-11.42-52.7-14.12 14.12 52.7 11.42-11.42c.98-.98 2.26-1.47 3.54-1.47z"/></g></g></svg>