<svg width="1230" height="1316" viewBox="0 0 1230 1316" fill="none" xmlns="http://www.w3.org/2000/svg">
<g opacity="0.24827">
<path d="M22.5842 0.999793C22.5842 0.999793 148.188 137.594 266.573 156.232C384.959 174.87 545.62 156.457 675.95 294.065C806.28 431.674 925.02 465.063 986.793 477.092C1048.57 489.12 1210.81 517.049 1217.91 675.289C1225 833.53 1023.38 904.384 899.306 881.435C775.235 858.485 576.362 841.826 470.109 965.888C363.857 1089.95 359.711 1149.41 212.034 1158.48" stroke="#334D80"/>
<path d="M22.2346 20.9969C22.2346 20.9969 147.838 157.591 266.224 176.229C384.609 194.867 545.27 176.454 675.6 314.062C805.93 451.671 924.671 485.06 986.443 497.089C1048.22 509.117 1210.46 537.046 1217.56 695.286C1224.65 853.527 1023.03 924.381 898.956 901.432C774.885 878.483 576.012 861.823 469.76 985.885C363.508 1109.95 359.362 1169.41 211.684 1178.48" stroke="#334D80"/>
<path d="M21.887 40.993C21.887 40.993 147.49 177.587 265.876 196.225C384.262 214.863 544.923 196.45 675.253 334.058C805.583 471.667 924.323 505.057 986.096 517.085C1047.87 529.113 1210.11 557.042 1217.21 715.283C1224.31 873.523 1022.68 944.377 898.608 921.428C774.537 898.479 575.664 881.819 469.412 1005.88C363.16 1129.94 359.014 1189.4 211.336 1198.48" stroke="#334D80"/>
<path d="M21.5374 60.99C21.5374 60.99 147.141 197.584 265.526 216.222C383.912 234.86 544.573 216.447 674.903 354.056C805.233 491.664 923.974 525.054 985.746 537.082C1047.52 549.11 1209.76 577.039 1216.86 735.28C1223.96 893.52 1022.33 964.374 898.259 941.425C774.188 918.476 575.315 901.816 469.063 1025.88C362.81 1149.94 358.664 1209.4 210.987 1218.47" stroke="#334D80"/>
<path d="M21.1878 80.9871C21.1878 80.9871 146.791 217.581 265.177 236.219C383.562 254.857 544.224 236.444 674.553 374.053C804.883 511.661 923.624 545.051 985.396 557.079C1047.17 569.107 1209.41 597.036 1216.51 755.277C1223.61 913.518 1021.98 984.371 897.909 961.422C773.838 938.473 574.965 921.813 468.713 1045.88C362.461 1169.94 358.315 1229.4 210.637 1238.47" stroke="#334D80"/>
<path d="M20.8381 100.984C20.8381 100.984 146.441 237.578 264.827 256.216C383.213 274.854 543.874 256.441 674.204 394.05C804.534 531.658 923.274 565.048 985.047 577.076C1046.82 589.105 1209.06 617.033 1216.16 775.274C1223.26 933.515 1021.63 1004.37 897.559 981.419C773.489 958.47 574.616 941.81 468.363 1065.87C362.111 1189.93 357.965 1249.4 210.287 1258.47" stroke="#334D80"/>
<path d="M20.4905 120.981C20.4905 120.981 146.094 257.575 264.479 276.213C382.865 294.851 543.526 276.438 673.856 414.047C804.186 551.655 922.927 585.045 984.699 597.073C1046.47 609.102 1208.71 637.03 1215.81 795.271C1222.91 953.512 1021.28 1024.37 897.212 1001.42C773.141 978.467 574.268 961.807 468.016 1085.87C361.763 1209.93 357.617 1269.39 209.94 1278.46" stroke="#334D80"/>
<path d="M20.1409 140.978C20.1409 140.978 145.744 277.572 264.13 296.21C382.516 314.849 543.177 296.435 673.507 434.044C803.836 571.652 922.577 605.042 984.35 617.07C1046.12 629.099 1208.36 657.027 1215.46 815.268C1222.56 973.509 1020.93 1044.36 896.862 1021.41C772.791 998.464 573.918 981.804 467.666 1105.87C361.414 1229.93 357.268 1289.39 209.59 1298.46" stroke="#334D80"/>
</g>
<circle r="4.5" transform="matrix(-0.999848 -0.0174524 -0.0174524 0.999848 139.611 158.565)" fill="#ff487b"/>
<circle r="4.5" transform="matrix(-0.999848 -0.0174524 -0.0174524 0.999848 589.521 339.444)" fill="#ff487b"/>
<circle r="4.5" transform="matrix(-0.999848 -0.0174524 -0.0174524 0.999848 1166.95 606.562)" fill="#ff487b"/>
<circle r="4.5" transform="matrix(-0.999848 -0.0174524 -0.0174524 0.999848 999.765 1016.71)" fill="#ff487b"/>
<circle r="4.5" transform="matrix(-0.999848 -0.0174524 -0.0174524 0.999848 343.228 1156.27)" fill="#ff487b"/>
<circle r="7.5" transform="matrix(-0.999848 -0.0174524 -0.0174524 0.999848 274.036 249.925)" fill="#ff487b"/>
<circle r="7.5" transform="matrix(-0.999848 -0.0174524 -0.0174524 0.999848 949.713 560.764)" fill="#ff487b"/>
<circle r="7.5" transform="matrix(-0.999848 -0.0174524 -0.0174524 0.999848 1124.73 904.872)" fill="#ff487b"/>
<circle r="7.5" transform="matrix(-0.999848 -0.0174524 -0.0174524 0.999848 577.62 1021.34)" fill="#ff487b"/>
<circle r="3.5" transform="matrix(-0.999848 -0.0174524 -0.0174524 0.999848 455.689 214.09)" fill="#ff487b"/>
<circle r="3.5" transform="matrix(-0.999848 -0.0174524 -0.0174524 0.999848 866.228 473.294)" fill="#ff487b"/>
<circle r="3.5" transform="matrix(-0.999848 -0.0174524 -0.0174524 0.999848 1175.46 806.742)" fill="#ff487b"/>
<circle r="3.5" transform="matrix(-0.999848 -0.0174524 -0.0174524 0.999848 801.064 883.22)" fill="#ff487b"/>
<circle r="3.5" transform="matrix(-0.999848 -0.0174524 -0.0174524 0.999848 430.501 1026.77)" fill="#ff487b"/>
</svg>
